HIERARCHY
ROOT root
{
	OFFSET 0.000000 0.000000 0.000000
	CHANNELS 6 Xposition Yposition Zposition Zrotation Yrotation Xrotation
	JOINT lhip
	{
		OFFSET 0.058581 -0.082280 -0.017664
		CHANNELS 3 Zrotation Yrotation Xrotation
		JOINT lknee
		{
			OFFSET 0.043451 -0.386469 0.008037
			CHANNELS 3 Zrotation Yrotation Xrotation
			JOINT lankle
			{
				OFFSET -0.014790 -0.426874 -0.037428
				CHANNELS 3 Zrotation Yrotation Xrotation
				JOINT ltoe
				{
					OFFSET 0.041054 -0.060286 0.122042
					CHANNELS 3 Zrotation Yrotation Xrotation
					End Site
					{
						OFFSET 0.000000 0.000000 0.000000
					}
				}
			}
		}
	}
	JOINT rhip
	{
		OFFSET -0.060310 -0.090513 -0.013543
		CHANNELS 3 Zrotation Yrotation Xrotation
		JOINT rknee
		{
			OFFSET -0.043257 -0.383688 -0.004843
			CHANNELS 3 Zrotation Yrotation Xrotation
			JOINT rankle
			{
				OFFSET 0.019056 -0.420046 -0.034562
				CHANNELS 3 Zrotation Yrotation Xrotation
				JOINT rtoe
				{
					OFFSET -0.034840 -0.062106 0.130323
					CHANNELS 3 Zrotation Yrotation Xrotation
					End Site
					{
						OFFSET 0.000000 0.000000 0.000000
					}
				}
			}
		}
	}
	JOINT lowerback
	{
		OFFSET 0.004439 0.124404 -0.038385
		CHANNELS 3 Zrotation Yrotation Xrotation
		JOINT upperback
		{
			OFFSET 0.004488 0.137956 0.026820
			CHANNELS 3 Zrotation Yrotation Xrotation
			JOINT chest
			{
				OFFSET -0.002265 0.056032 0.002855
				CHANNELS 3 Zrotation Yrotation Xrotation
				JOINT lowerneck
				{
					OFFSET -0.013390 0.211636 -0.033468
					CHANNELS 3 Zrotation Yrotation Xrotation
					JOINT upperneck
					{
						OFFSET 0.010113 0.088937 0.050410
						CHANNELS 3 Zrotation Yrotation Xrotation
						End Site
						{
							OFFSET 0.000000 0.000000 0.000000
						}
					}
				}
				JOINT lclavicle
				{
					OFFSET 0.071702 0.114000 -0.018898
					CHANNELS 3 Zrotation Yrotation Xrotation
					JOINT lshoulder
					{
						OFFSET 0.122921 0.045205 -0.019046
						CHANNELS 3 Zrotation Yrotation Xrotation
						JOINT lelbow
						{
							OFFSET 0.255332 -0.015649 -0.022946
							CHANNELS 3 Zrotation Yrotation Xrotation
							JOINT lwrist
							{
								OFFSET 0.265709 0.012698 -0.007375
								CHANNELS 3 Zrotation Yrotation Xrotation
								End Site
								{
									OFFSET 0.000000 0.000000 0.000000
								}
							}
						}
					}
				}
				JOINT rclavicle
				{
					OFFSET -0.082954 0.112472 -0.023707
					CHANNELS 3 Zrotation Yrotation Xrotation
					JOINT rshoulder
					{
						OFFSET -0.113228 0.046853 -0.008472
						CHANNELS 3 Zrotation Yrotation Xrotation
						JOINT relbow
						{
							OFFSET -0.260127 -0.014369 -0.031269
							CHANNELS 3 Zrotation Yrotation Xrotation
							JOINT rwrist
							{
								OFFSET -0.269108 0.006794 -0.006027
								CHANNELS 3 Zrotation Yrotation Xrotation
								End Site
								{
									OFFSET 0.000000 0.000000 0.000000
								}
							}
						}
					}
				}
			}
		}
	}
}
MOTION
Frames: 7
Frame Time: 0.033333
1.177838 1.145030 0.989574 -89.422989 3.170083 85.017306 1.459553 0.262168 8.236684 -3.184813 -15.666202 2.379224 4.806239 7.044407 -15.226447 0.000000 -0.000000 0.000000 3.810279 -1.523835 6.042108 3.711086 4.208835 7.838066 2.219427 -2.998901 -11.573609 0.000000 -0.000000 0.000000 -1.992760 1.072885 4.857105 2.157360 -2.712725 3.338174 1.600368 -1.979293 4.819848 3.664995 1.188411 -1.207176 2.652877 -2.813817 1.829480 -26.122710 6.666607 2.341827 -61.690826 -4.912410 6.761778 10.294761 -24.212014 3.612431 -2.938540 -0.706658 -9.934730 24.373155 -4.387035 -0.037506 62.406792 1.284426 10.087710 -14.809553 24.112250 -4.496124 7.333015 -0.980294 -10.361369 
1.177555 1.144984 0.989409 -89.354903 3.168874 85.023281 1.482542 0.267795 8.238827 -3.222493 -15.735590 2.324541 4.724695 7.015729 -15.209354 0.000000 -0.000000 0.000000 3.806552 -1.525591 6.094306 3.734347 4.192144 7.745231 2.230093 -3.054100 -11.613250 0.000000 -0.000000 0.000000 -1.918610 1.049122 4.779450 2.135243 -2.655365 3.321757 1.602912 -2.022504 4.874026 3.810088 0.899560 -1.186662 2.448360 -3.020582 1.960092 -26.001631 6.832484 2.334138 -61.930907 -4.900046 6.854628 10.371405 -23.901397 3.854730 -2.776975 -0.839654 -10.094441 24.251954 -4.437654 -0.054957 62.516913 1.318130 10.122180 -14.784629 23.902328 -4.510023 7.095109 -0.913864 -10.622191 
1.176706 1.144983 0.989479 -89.282173 3.198550 84.968601 1.525118 0.383752 8.399846 -3.155263 -15.888964 2.243479 4.558516 6.902817 -15.250975 0.000000 -0.000000 0.000000 3.823594 -1.678221 6.267249 3.769500 4.355634 7.674817 2.177955 -3.042297 -11.641990 0.000000 -0.000000 0.000000 -1.857439 0.999455 4.564577 2.132195 -2.658488 3.508401 1.581202 -1.986646 4.977737 3.812817 1.092006 -1.243578 2.476840 -2.925172 1.856610 -26.052957 6.853400 2.269778 -61.938762 -4.875247 6.810873 10.343149 -23.598647 3.819509 -2.770121 -0.827436 -10.117139 24.267143 -4.437997 -0.115268 62.565341 1.461602 10.067383 -14.735023 23.567144 -4.665126 7.078702 -0.847857 -10.773723 
1.176328 1.145142 0.989386 -89.279126 3.205565 85.018991 1.583373 0.447568 8.355969 -3.226180 -15.852019 2.273718 4.510032 6.875777 -15.246128 0.000000 -0.000000 0.000000 3.859675 -1.685509 6.254778 3.757775 4.393278 7.612549 2.096710 -3.103178 -11.624210 0.000000 -0.000000 0.000000 -1.769819 0.989255 4.412447 2.134913 -2.629433 3.554691 1.519579 -1.998463 4.965293 3.837770 0.927039 -1.210101 2.412356 -3.017847 1.875728 -26.111295 6.917476 2.346722 -61.950163 -4.786447 6.754093 10.396851 -23.346134 3.913893 -2.721583 -0.796880 -10.134881 24.205667 -4.428463 -0.113892 62.598191 1.469776 10.073853 -14.717132 23.466454 -4.500983 7.049818 -0.999349 -10.688485 
1.176284 1.145275 0.989289 -89.278528 3.190949 85.046389 1.534384 0.287063 8.369154 -3.172181 -15.844298 2.182118 4.798077 7.010829 -15.249751 0.000000 -0.000000 0.000000 3.832887 -1.662479 6.261658 3.810468 4.443640 7.568736 2.053533 -3.092349 -11.576340 0.000000 -0.000000 0.000000 -1.736141 1.025858 4.343574 2.118135 -2.617566 3.596429 1.486002 -2.006453 4.942465 3.840461 0.960339 -1.154567 2.467342 -2.996223 1.821118 -26.096447 6.931465 2.394031 -62.027856 -4.727933 6.742307 10.503089 -23.229812 3.843718 -2.752516 -0.761885 -10.204720 24.170849 -4.470083 -0.132486 62.630683 1.502764 10.087972 -14.738700 23.443505 -4.526932 7.038636 -0.882110 -10.824620 
1.176202 1.145404 0.989258 -89.326503 3.184791 84.992753 1.488223 0.180447 8.419880 -3.132046 -15.751047 2.215028 4.674077 7.071727 -15.307682 0.000000 -0.000000 0.000000 3.833027 -1.621691 6.330627 3.819696 4.500026 7.544607 2.071858 -3.132050 -11.633188 0.000000 -0.000000 0.000000 -1.638244 1.101640 4.379003 2.102858 -2.567636 3.596872 1.419870 -2.033850 4.965633 3.822619 1.005694 -1.301994 2.486488 -3.033959 1.886597 -26.132494 6.938260 2.360605 -62.020277 -4.687768 6.771811 10.500267 -23.033762 3.739606 -2.696951 -0.861884 -10.261132 24.217393 -4.484805 -0.218124 62.579214 1.482069 10.147324 -14.751705 23.367693 -4.602691 6.999851 -0.873154 -10.950419 
1.176465 1.145618 0.989291 -89.182954 3.185036 85.014477 1.470582 0.089526 8.278798 -3.097789 -15.776115 2.413774 4.528519 7.004290 -15.338968 0.000000 -0.000000 0.000000 3.865416 -1.670349 6.289355 3.832146 4.423853 7.543890 2.119944 -3.258739 -11.641685 0.000000 -0.000000 0.000000 -1.614281 1.108259 4.460813 2.120972 -2.622216 3.479087 1.442520 -2.090685 4.984508 3.883812 0.816148 -1.535521 2.445710 -3.245522 2.021770 -26.215266 6.964233 2.278460 -61.957810 -4.680632 6.766192 10.350470 -22.819993 3.779792 -2.633459 -0.985005 -10.165995 24.208372 -4.494652 -0.275886 62.519494 1.371264 10.195720 -14.753697 23.565265 -4.624602 6.879749 -0.814966 -10.956363 
